#Comment line ignore any data following # character 
#Hierarchical Translation and Rotation (.htr) file 
[Header]	
#Header keywords are followed by a single value 
FileType HTR		#Single word string
DataType HTRS		#Translation followed by rotation and scale data
FileVersion 1		#integer
NumSegments 84		#integer
NumFrames 2		#integer
DataFrameRate 30		#integer, data frame rate in this file
EulerRotationOrder ZYX
CalibrationUnits mm
RotationUnits Degrees
GlobalAxisofGravity Y
BoneLengthAxis Y
ScaleFactor 1.00
[SegmentNames&Hierarchy]
#CHILD	PARENT
MASTER GLOBAL
root MASTER
chest root
L_mid_tent01 root
R_mid_tent01 root
spine01 root
Bip01_Neck chest
L_humerus chest
R_humerus chest
weapon_bone chest
Bip01_Head Bip01_Neck
eye_left_bone Bip01_Head
eye_right_bone Bip01_Head
L_forearm L_humerus
L_front_hand L_forearm
L_weapon_bone L_forearm
L_front_hand01_01 L_front_hand
L_front_hand02_01 L_front_hand
L_front_hand03_01 L_front_hand
L_front_hand01_02 L_front_hand01_01
L_front_hand02_02 L_front_hand02_01
L_front_hand03_02 L_front_hand03_01
R_forearm R_humerus
R_front_hand R_forearm
R_weapon_bone R_forearm
R_front_hand01_01 R_front_hand
R_front_hand02_01 R_front_hand
R_front_hand03_01 R_front_hand
R_front_hand01_02 R_front_hand01_01
R_front_hand02_02 R_front_hand02_01
R_front_hand03_02 R_front_hand03_01
null_rope01_connect L_mid_tent01
Rope1_Seg01 null_rope01_connect
Rope1_Seg02 Rope1_Seg01
Rope1_Seg03 Rope1_Seg02
Rope1_Seg04 Rope1_Seg03
Rope1_Seg05 Rope1_Seg04
Rope1_Seg06 Rope1_Seg05
Rope1_Seg07 Rope1_Seg06
Rope1_Seg09 Rope1_Seg07
L_mid_hand01 Rope1_Seg09
L_mid_hand02 Rope1_Seg09
L_mid_hand03 Rope1_Seg09
null_rope02_connect R_mid_tent01
Rope2_Seg01 null_rope02_connect
Rope2_Seg02 Rope2_Seg01
Rope2_Seg03 Rope2_Seg02
Rope2_Seg04 Rope2_Seg03
Rope2_Seg05 Rope2_Seg04
Rope2_Seg06 Rope2_Seg05
Rope2_Seg07 Rope2_Seg06
Rope2_Seg09 Rope2_Seg07
R_mid_hand01 Rope2_Seg09
R_mid_hand02 Rope2_Seg09
R_mid_hand03 Rope2_Seg09
spine02 spine01
spine03 spine02
pelvis spine03
null_rope03_connect pelvis
null_rope04_connect pelvis
Rope3_Seg01 null_rope03_connect
Rope3_Seg02 Rope3_Seg01
Rope3_Seg03 Rope3_Seg02
Rope3_Seg04 Rope3_Seg03
Rope3_Seg05 Rope3_Seg04
Rope3_Seg06 Rope3_Seg05
Rope3_Seg07 Rope3_Seg06
Rope3_Seg08 Rope3_Seg07
Rope3_Seg09 Rope3_Seg08
R_rear_hand01 Rope3_Seg09
R_rear_hand02 Rope3_Seg09
R_rear_hand03 Rope3_Seg09
Rope4_Seg01 null_rope04_connect
Rope4_Seg02 Rope4_Seg01
Rope4_Seg03 Rope4_Seg02
Rope4_Seg04 Rope4_Seg03
Rope4_Seg05 Rope4_Seg04
Rope4_Seg06 Rope4_Seg05
Rope4_Seg07 Rope4_Seg06
Rope4_Seg08 Rope4_Seg07
Rope4_Seg09 Rope4_Seg08
L_rear_hand01 Rope4_Seg09
L_rear_hand02 Rope4_Seg09
L_rear_hand03 Rope4_Seg09
[BasePosition]
#SegmentName Tx, Ty, Tz, Rx, Ry, Rz, BoneLength
MASTER 0.000000 0.000000 0.000000 -90.000000 0.000000 0.000000 10.000000 
root 0.000000 0.000000 0.000000 0.000000 0.000000 0.000000 10.000000 
chest 0.000000 0.000000 0.000000 0.000000 0.000000 0.000000 10.000000 
L_mid_tent01 0.000000 0.000000 0.000000 0.000000 0.000000 0.000000 10.000000 
R_mid_tent01 0.000000 0.000000 0.000000 0.000000 0.000000 0.000000 10.000000 
spine01 0.000000 0.000000 0.000000 0.000000 0.000000 0.000000 10.000000 
Bip01_Neck 0.000000 0.000000 0.000000 0.000000 0.000000 0.000000 10.000000 
L_humerus 0.000000 0.000000 0.000000 0.000000 0.000000 0.000000 10.000000 
R_humerus 0.000000 0.000000 0.000000 0.000000 0.000000 0.000000 10.000000 
weapon_bone 0.000000 0.000000 0.000000 0.000000 0.000000 0.000000 10.000000 
Bip01_Head 0.000000 0.000000 0.000000 0.000000 0.000000 0.000000 10.000000 
eye_left_bone 0.000000 0.000000 0.000000 0.000000 0.000000 0.000000 10.000000 
eye_right_bone 0.000000 0.000000 0.000000 0.000000 0.000000 0.000000 10.000000 
L_forearm 0.000000 0.000000 0.000000 0.000000 0.000000 0.000000 10.000000 
L_front_hand 0.000000 0.000000 0.000000 0.000000 0.000000 0.000000 10.000000 
L_weapon_bone 0.000000 0.000000 0.000000 0.000000 0.000000 0.000000 10.000000 
L_front_hand01_01 0.000000 0.000000 0.000000 0.000000 0.000000 0.000000 10.000000 
L_front_hand02_01 0.000000 0.000000 0.000000 0.000000 0.000000 0.000000 10.000000 
L_front_hand03_01 0.000000 0.000000 0.000000 0.000000 0.000000 0.000000 10.000000 
L_front_hand01_02 0.000000 0.000000 0.000000 0.000000 0.000000 0.000000 10.000000 
L_front_hand02_02 0.000000 0.000000 0.000000 0.000000 0.000000 0.000000 10.000000 
L_front_hand03_02 0.000000 0.000000 0.000000 0.000000 0.000000 0.000000 10.000000 
R_forearm 0.000000 0.000000 0.000000 0.000000 0.000000 0.000000 10.000000 
R_front_hand 0.000000 0.000000 0.000000 0.000000 0.000000 0.000000 10.000000 
R_weapon_bone 0.000000 0.000000 0.000000 0.000000 0.000000 0.000000 10.000000 
R_front_hand01_01 0.000000 0.000000 0.000000 0.000000 0.000000 0.000000 10.000000 
R_front_hand02_01 0.000000 0.000000 0.000000 0.000000 0.000000 0.000000 10.000000 
R_front_hand03_01 0.000000 0.000000 0.000000 0.000000 0.000000 0.000000 10.000000 
R_front_hand01_02 0.000000 0.000000 0.000000 0.000000 0.000000 0.000000 10.000000 
R_front_hand02_02 0.000000 0.000000 0.000000 0.000000 0.000000 0.000000 10.000000 
R_front_hand03_02 0.000000 0.000000 0.000000 0.000000 0.000000 0.000000 10.000000 
null_rope01_connect 0.000000 0.000000 0.000000 0.000000 0.000000 0.000000 10.000000 
Rope1_Seg01 0.000000 0.000000 0.000000 0.000000 0.000000 0.000000 10.000000 
Rope1_Seg02 0.000000 0.000000 0.000000 0.000000 0.000000 0.000000 10.000000 
Rope1_Seg03 0.000000 0.000000 0.000000 0.000000 0.000000 0.000000 10.000000 
Rope1_Seg04 0.000000 0.000000 0.000000 0.000000 0.000000 0.000000 10.000000 
Rope1_Seg05 0.000000 0.000000 0.000000 0.000000 0.000000 0.000000 10.000000 
Rope1_Seg06 0.000000 0.000000 0.000000 0.000000 0.000000 0.000000 10.000000 
Rope1_Seg07 0.000000 0.000000 0.000000 0.000000 0.000000 0.000000 10.000000 
Rope1_Seg09 0.000000 0.000000 0.000000 0.000000 0.000000 0.000000 10.000000 
L_mid_hand01 0.000000 0.000000 0.000000 0.000000 0.000000 0.000000 10.000000 
L_mid_hand02 0.000000 0.000000 0.000000 0.000000 0.000000 0.000000 10.000000 
L_mid_hand03 0.000000 0.000000 0.000000 0.000000 0.000000 0.000000 10.000000 
null_rope02_connect 0.000000 0.000000 0.000000 0.000000 0.000000 0.000000 10.000000 
Rope2_Seg01 0.000000 0.000000 0.000000 0.000000 0.000000 0.000000 10.000000 
Rope2_Seg02 0.000000 0.000000 0.000000 0.000000 0.000000 0.000000 10.000000 
Rope2_Seg03 0.000000 0.000000 0.000000 0.000000 0.000000 0.000000 10.000000 
Rope2_Seg04 0.000000 0.000000 0.000000 0.000000 0.000000 0.000000 10.000000 
Rope2_Seg05 0.000000 0.000000 0.000000 0.000000 0.000000 0.000000 10.000000 
Rope2_Seg06 0.000000 0.000000 0.000000 0.000000 0.000000 0.000000 10.000000 
Rope2_Seg07 0.000000 0.000000 0.000000 0.000000 0.000000 0.000000 10.000000 
Rope2_Seg09 0.000000 0.000000 0.000000 0.000000 0.000000 0.000000 10.000000 
R_mid_hand01 0.000000 0.000000 0.000000 0.000000 0.000000 0.000000 10.000000 
R_mid_hand02 0.000000 0.000000 0.000000 0.000000 0.000000 0.000000 10.000000 
R_mid_hand03 0.000000 0.000000 0.000000 0.000000 0.000000 0.000000 10.000000 
spine02 0.000000 0.000000 0.000000 0.000000 0.000000 0.000000 10.000000 
spine03 0.000000 0.000000 0.000000 0.000000 0.000000 0.000000 10.000000 
pelvis 0.000000 0.000000 0.000000 0.000000 0.000000 0.000000 10.000000 
null_rope03_connect 0.000000 0.000000 0.000000 0.000000 0.000000 0.000000 10.000000 
null_rope04_connect 0.000000 0.000000 0.000000 0.000000 0.000000 0.000000 10.000000 
Rope3_Seg01 0.000000 0.000000 0.000000 0.000000 0.000000 0.000000 10.000000 
Rope3_Seg02 0.000000 0.000000 0.000000 0.000000 0.000000 0.000000 10.000000 
Rope3_Seg03 0.000000 0.000000 0.000000 0.000000 0.000000 0.000000 10.000000 
Rope3_Seg04 0.000000 0.000000 0.000000 0.000000 0.000000 0.000000 10.000000 
Rope3_Seg05 0.000000 0.000000 0.000000 0.000000 0.000000 0.000000 10.000000 
Rope3_Seg06 0.000000 0.000000 0.000000 0.000000 0.000000 0.000000 10.000000 
Rope3_Seg07 0.000000 0.000000 0.000000 0.000000 0.000000 0.000000 10.000000 
Rope3_Seg08 0.000000 0.000000 0.000000 0.000000 0.000000 0.000000 10.000000 
Rope3_Seg09 0.000000 0.000000 0.000000 0.000000 0.000000 0.000000 10.000000 
R_rear_hand01 0.000000 0.000000 0.000000 0.000000 0.000000 0.000000 10.000000 
R_rear_hand02 0.000000 0.000000 0.000000 0.000000 0.000000 0.000000 10.000000 
R_rear_hand03 0.000000 0.000000 0.000000 0.000000 0.000000 0.000000 10.000000 
Rope4_Seg01 0.000000 0.000000 0.000000 0.000000 0.000000 0.000000 10.000000 
Rope4_Seg02 0.000000 0.000000 0.000000 0.000000 0.000000 0.000000 10.000000 
Rope4_Seg03 0.000000 0.000000 0.000000 0.000000 0.000000 0.000000 10.000000 
Rope4_Seg04 0.000000 0.000000 0.000000 0.000000 0.000000 0.000000 10.000000 
Rope4_Seg05 0.000000 0.000000 0.000000 0.000000 0.000000 0.000000 10.000000 
Rope4_Seg06 0.000000 0.000000 0.000000 0.000000 0.000000 0.000000 10.000000 
Rope4_Seg07 0.000000 0.000000 0.000000 0.000000 0.000000 0.000000 10.000000 
Rope4_Seg08 0.000000 0.000000 0.000000 0.000000 0.000000 0.000000 10.000000 
Rope4_Seg09 0.000000 0.000000 0.000000 0.000000 0.000000 0.000000 10.000000 
L_rear_hand01 0.000000 0.000000 0.000000 0.000000 0.000000 0.000000 10.000000 
L_rear_hand02 0.000000 0.000000 0.000000 0.000000 0.000000 0.000000 10.000000 
L_rear_hand03 0.000000 0.000000 0.000000 0.000000 0.000000 0.000000 10.000000 
#Beginning of Data. Separated by tabs
#Fr	Tx	Ty	Tz	Rx	Ry	Rz	SF
[MASTER]
33 -0.000581 3760.811279 2714.290039 0.001660 0.001660 0.001660 4638.002930
34 -0.000586 3804.646729 2738.034912 0.001660 0.001660 0.001660 4687.448242
[root]
33 -16.502182 -41.129688 1483.442017 -91.656166 -22.838804 -89.720673 1484.103882
34 -16.502167 -31.639025 1476.730957 -91.672295 -20.721334 -89.649651 1477.162109
[chest]
33 -84.512650 -34.090519 0.000000 -2.081026 0.547543 174.247971 91.129311
34 -84.512650 -34.090519 0.000000 -2.096305 0.466132 173.399597 91.129311
[L_mid_tent01]
33 27.298929 22.178984 -249.918640 -27.277020 12.121790 7.258651 252.381592
34 27.298923 22.178978 -249.918640 -26.330078 12.147734 8.078047 252.381592
[R_mid_tent01]
33 23.228794 24.509907 226.238495 -149.952026 -13.703731 6.087722 228.744751
34 23.228794 24.509907 226.238495 -152.116226 -14.707064 8.732361 228.744751
[spine01]
33 -0.361383 -0.195265 0.000000 0.002009 0.001214 27.689182 0.410763
34 -0.361383 -0.195265 0.000000 0.001999 0.001230 26.803740 0.410763
[Bip01_Neck]
33 165.484543 71.581718 0.000119 176.643677 -1.657967 43.431911 180.302734
34 165.484543 71.581718 0.000119 176.643677 -1.657967 43.431911 180.302734
[L_humerus]
33 -13.983130 -135.272980 -120.471481 -5.480129 68.873367 84.573456 181.680161
34 -13.983130 -135.272980 -120.471481 -5.480129 68.873367 84.573456 181.680161
[R_humerus]
33 -13.983309 -135.273102 125.287651 27.830740 -69.921516 67.902298 184.909012
34 -13.983309 -135.273102 125.287651 27.830740 -69.921516 67.902298 184.909012
[weapon_bone]
33 235.964890 -300.705902 0.000000 0.000000 -89.951546 -128.212341 382.234833
34 235.964890 -300.705902 0.000000 0.000000 -89.951546 -128.212341 382.234833
[Bip01_Head]
33 213.328476 186.038574 7.608985 5.200446 6.151311 -43.834991 283.155945
34 213.327744 186.040527 7.584114 5.200445 6.151311 -43.834991 283.156006
[eye_left_bone]
33 -24.626970 125.451866 -64.772606 0.000000 -90.000000 -99.840431 143.318359
34 -24.626970 125.451866 -64.772606 0.000000 -90.000000 -99.840431 143.318359
[eye_right_bone]
33 -24.626970 125.451866 64.327362 0.000000 -89.965736 80.156380 143.117676
34 -24.626970 125.451866 64.327362 0.000000 -89.965736 80.156380 143.117676
[L_forearm]
33 322.776093 0.000000 -0.000119 0.000402 -0.002312 -109.746796 322.776093
34 322.776093 0.000000 -0.000119 0.000401 -0.002313 -109.662155 322.776093
[L_front_hand]
33 241.149185 -0.042021 -3.300071 -178.667953 -1.835447 -27.422350 241.171753
34 241.149185 -0.042021 -3.300071 -178.667953 -1.835447 -27.422350 241.171753
[L_weapon_bone]
33 156.183838 0.000000 0.000000 0.000014 0.000007 0.000001 156.183838
34 156.183838 0.000000 0.000000 0.000014 0.000007 0.000001 156.183838
[L_front_hand01_01]
33 86.095154 20.947098 -0.655860 -0.366594 -0.477154 75.385574 88.609184
34 86.095154 20.947098 -0.655860 -0.366594 -0.477154 75.385582 88.609184
[L_front_hand02_01]
33 86.935165 -11.437475 24.513514 154.399811 -59.883835 -61.369606 91.046425
34 86.935165 -11.437475 24.513514 154.399796 -59.883835 -61.369587 91.046425
[L_front_hand03_01]
33 86.637497 -14.123976 -20.424902 -153.913849 58.118122 -62.702866 90.126129
34 86.637497 -14.123976 -20.424902 -153.913879 58.118130 -62.702892 90.126129
[L_front_hand01_02]
33 71.020905 -0.000179 0.000030 0.000330 -0.002324 -106.153122 71.020905
34 71.020905 -0.000179 0.000030 0.000331 -0.002324 -106.206635 71.020905
[L_front_hand02_02]
33 71.020927 -0.000119 0.000060 0.000330 -0.002324 -106.153122 71.020927
34 71.020927 -0.000119 0.000060 0.000331 -0.002324 -106.206635 71.020927
[L_front_hand03_02]
33 71.020905 -0.000060 0.000060 0.000330 -0.002324 -106.153122 71.020905
34 71.020905 -0.000060 0.000060 0.000331 -0.002324 -106.206635 71.020905
[R_forearm]
33 322.776428 -0.000060 0.000030 0.201913 0.065742 -108.394447 322.776428
34 322.776428 -0.000060 0.000030 0.201958 0.065606 -108.317184 322.776428
[R_front_hand]
33 238.847015 -0.006795 2.210259 -2.635298 -10.645461 -26.312506 238.857239
34 238.847015 -0.006795 2.210259 -2.635298 -10.645461 -26.312506 238.857239
[R_weapon_bone]
33 155.664093 0.002503 -0.000030 0.003487 0.001180 -90.988930 155.664078
34 155.664093 0.002503 -0.000030 0.003487 0.001180 -90.988930 155.664078
[R_front_hand01_01]
33 87.624611 14.231146 22.918642 -154.633514 -59.950634 61.746063 91.683487
34 87.624611 14.231146 22.918642 -154.633499 -59.950619 61.746044 91.683487
[R_front_hand02_01]
33 89.356956 14.367283 -19.491137 154.602661 58.302849 63.744381 92.579636
34 89.356956 14.367283 -19.491137 154.602661 58.302849 63.744389 92.579636
[R_front_hand03_01]
33 87.286232 -22.307278 -0.143439 0.162155 -0.423168 -75.767921 90.091743
34 87.286232 -22.307278 -0.143439 0.162155 -0.423168 -75.767921 90.091743
[R_front_hand01_02]
33 71.020905 0.000060 0.000119 0.002323 -0.000334 106.381714 71.020905
34 71.020905 0.000060 0.000119 0.002323 -0.000334 106.381714 71.020905
[R_front_hand02_02]
33 71.020844 -0.000030 -0.000119 0.002323 -0.000334 106.381714 71.020836
34 71.020844 -0.000030 -0.000119 0.002323 -0.000334 106.381714 71.020836
[R_front_hand03_02]
33 71.020905 0.000000 0.000030 0.002323 -0.000334 106.381714 71.020905
34 71.020905 0.000000 0.000030 0.002323 -0.000334 106.381714 71.020905
[null_rope01_connect]
33 328.732483 0.000000 -0.000238 -143.338577 -58.903812 -113.854973 328.732483
34 328.732483 0.000000 -0.000238 -145.547241 -59.771439 -114.467384 328.732483
[Rope1_Seg01]
33 0.000031 -0.000257 -0.000250 97.197250 14.871538 -132.616119 0.000360
34 0.000032 -0.000264 -0.000258 87.043533 12.601417 -130.705093 0.000371
[Rope1_Seg02]
33 139.999863 -0.000179 0.000000 -31.319300 7.150519 6.823062 139.999863
34 139.999863 -0.000179 0.000000 -27.106474 5.989156 6.397254 139.999863
[Rope1_Seg03]
33 139.999924 0.000060 -0.000060 -21.185480 3.345176 11.514237 139.999924
34 139.999924 0.000060 -0.000060 -19.777184 3.164264 10.137447 139.999924
[Rope1_Seg04]
33 139.999924 -0.000060 -0.000119 -9.601100 -1.177026 11.166136 139.999924
34 139.999924 -0.000060 -0.000119 -9.730691 -0.624386 10.004530 139.999924
[Rope1_Seg05]
33 139.999832 0.000119 -0.000060 4.012587 -0.559203 -3.492502 139.999832
34 139.999832 0.000119 -0.000060 4.217320 -0.676654 -3.225745 139.999832
[Rope1_Seg06]
33 139.999954 0.000119 -0.000060 3.334173 -0.301352 -2.852383 139.999954
34 139.999954 0.000119 -0.000060 3.300762 -0.417113 -2.469584 139.999954
[Rope1_Seg07]
33 139.999985 0.000060 0.000000 1.061810 -0.308915 -0.644175 139.999985
34 139.999985 0.000060 0.000000 1.056723 -0.324506 -0.565171 139.999985
[Rope1_Seg09]
33 121.602913 0.000119 -0.000089 -89.793175 -1.359789 0.847147 121.602913
34 121.602913 0.000119 -0.000089 -89.793175 -1.359789 0.847147 121.602913
[L_mid_hand01]
33 103.859421 1.038730 8.195221 130.544373 -67.584534 -38.866943 104.187431
34 103.859421 1.038730 8.195221 130.544373 -67.584534 -38.866943 104.187431
[L_mid_hand02]
33 105.572853 -4.139662 -10.864139 -168.923172 43.409309 -73.498886 106.211075
34 105.572853 -4.139662 -10.864139 -168.923172 43.409309 -73.498894 106.211075
[L_mid_hand03]
33 104.641464 17.579376 -3.913581 -6.012627 17.808174 74.893669 106.179977
34 104.641464 17.579376 -3.913581 -6.012627 17.808178 74.893677 106.179977
[null_rope02_connect]
33 328.732849 0.000179 -0.000119 -139.870468 58.647911 -62.731579 328.732849
34 328.732849 0.000179 -0.000119 -141.057663 60.127003 -59.168480 328.732849
[Rope2_Seg01]
33 0.000108 -0.000230 0.000000 41.460617 -12.093342 -52.212189 0.000254
34 0.000109 -0.000241 0.000000 40.263493 -6.843944 -50.113300 0.000264
[Rope2_Seg02]
33 139.999741 -0.000060 -0.000119 6.233064 -10.069357 -1.040232 139.999756
34 139.999741 -0.000060 -0.000119 8.685050 -13.292654 -1.037214 139.999756
[Rope2_Seg03]
33 140.000107 0.000030 0.000000 2.375915 -6.037413 0.059638 140.000107
34 140.000107 0.000030 0.000000 2.410758 -7.858751 0.872381 140.000107
[Rope2_Seg04]
33 139.999802 0.000000 -0.000060 1.153016 -3.735225 0.201595 139.999802
34 139.999802 0.000000 -0.000060 1.001130 -4.605883 0.748440 139.999802
[Rope2_Seg05]
33 139.999985 -0.000060 0.000119 0.613219 -2.234468 0.093579 139.999985
34 139.999985 -0.000060 0.000119 0.917641 -2.400007 -0.274810 139.999985
[Rope2_Seg06]
33 139.999893 -0.000030 -0.000119 0.515960 -1.902567 0.007922 139.999893
34 139.999893 -0.000030 -0.000119 1.215299 -1.717857 -1.104821 139.999893
[Rope2_Seg07]
33 139.999893 0.000060 -0.000060 0.480462 -2.011600 0.057521 139.999893
34 139.999893 0.000060 -0.000060 1.029516 -1.969635 -0.802564 139.999893
[Rope2_Seg09]
33 121.338966 0.000089 -0.000060 33.793236 -1.359788 -0.847141 121.338966
34 121.338966 0.000089 -0.000060 33.793236 -1.359788 -0.847141 121.338966
[R_mid_hand01]
33 104.680779 11.144459 -10.335981 -16.212063 45.237247 70.462852 105.778534
34 104.680779 11.144459 -10.335981 -16.212063 45.237247 70.462852 105.778534
[R_mid_hand02]
33 104.070427 2.443552 8.231699 49.067368 -67.749771 39.286453 104.424065
34 104.070427 2.443552 8.231699 49.067368 -67.749771 39.286453 104.424065
[R_mid_hand03]
33 106.028137 -11.221827 -5.996406 -177.101105 15.551026 -76.585571 106.788818
34 106.028137 -11.221827 -5.996406 -177.101105 15.551026 -76.585571 106.788818
[spine02]
33 129.756927 0.001550 0.000119 -0.058182 -4.058608 -7.048035 129.756927
34 129.756927 0.001550 0.000119 0.006840 -4.059045 -7.972568 129.756927
[spine03]
33 78.614174 0.081732 -4.899029 1.914289 3.823560 16.768599 78.766716
34 78.614174 0.081740 -4.899030 1.908756 3.826922 16.693438 78.766716
[pelvis]
33 169.435242 0.051022 0.000000 -0.061382 -0.179915 14.671163 169.435257
34 169.435242 0.051022 0.000000 -0.061170 -0.179987 14.536551 169.435257
[null_rope03_connect]
33 -1.257226 -2.466202 137.391083 -159.339310 -89.132042 -139.833710 137.418976
34 -1.257226 -2.466202 137.391083 -166.898270 -89.197411 -132.388855 137.418976
[null_rope04_connect]
33 -1.259640 -2.480268 -137.844437 -159.339310 -89.132042 -139.833710 137.872513
34 -1.259640 -2.480268 -137.844437 -166.898270 -89.197411 -132.388855 137.872513
[Rope3_Seg01]
33 -0.000029 -0.000007 0.000250 -125.634460 25.028400 -62.518021 0.000252
34 -0.000029 -0.000006 0.000258 -128.058319 23.202291 -67.817917 0.000260
[Rope3_Seg02]
33 139.999924 -0.000119 0.000060 -1.647871 6.174404 -7.745885 139.999924
34 139.999924 -0.000119 0.000060 -0.598937 3.415917 -6.506419 139.999924
[Rope3_Seg03]
33 139.999924 -0.000119 0.000119 -1.072674 3.273517 -4.839802 139.999924
34 139.999924 -0.000119 0.000119 -1.260734 4.622884 -7.062827 139.999924
[Rope3_Seg04]
33 139.999924 0.000119 0.000000 0.415837 -0.320066 4.091510 139.999924
34 139.999924 0.000119 0.000000 0.834131 -5.610844 6.485750 139.999924
[Rope3_Seg05]
33 139.999924 -0.000238 0.000060 0.441332 -0.774949 3.768104 139.999924
34 139.999924 -0.000238 0.000060 0.601582 -5.297205 6.750814 139.999924
[Rope3_Seg06]
33 139.999893 -0.000119 -0.000060 0.480118 -0.122179 1.222776 139.999893
34 139.999893 -0.000119 -0.000060 0.547525 -1.720440 2.194680 139.999893
[Rope3_Seg07]
33 139.999771 0.000060 -0.000119 0.545182 -0.071548 0.832213 139.999771
34 139.999771 0.000060 -0.000119 0.577081 -1.078723 1.400917 139.999771
[Rope3_Seg08]
33 139.999985 -0.000060 0.000000 0.555397 -0.040461 0.525719 139.999985
34 139.999985 -0.000060 0.000000 0.575299 -0.660535 0.873762 139.999985
[Rope3_Seg09]
33 90.185997 -0.000179 -0.000060 89.793228 -1.359877 -0.847183 90.185997
34 90.185997 -0.000179 -0.000060 89.793228 -1.359877 -0.847183 90.185997
[R_rear_hand01]
33 103.366196 -6.073594 -10.757982 -177.714203 24.565960 -73.910950 104.101845
34 103.366196 -6.073594 -10.757982 -177.714203 24.565960 -73.910950 104.101845
[R_rear_hand02]
33 100.509819 12.039542 -7.992327 -12.874829 36.868488 72.167213 101.543350
34 100.509819 12.039542 -7.992327 -12.874829 36.868488 72.167213 101.543350
[R_rear_hand03]
33 101.539970 5.215704 5.435467 71.484581 -71.816628 21.513813 101.819031
34 101.539970 5.215704 5.435467 71.484581 -71.816628 21.513813 101.819031
[Rope4_Seg01]
33 0.000010 0.000007 -0.000027 47.470673 8.517870 -112.701698 0.000030
34 0.000010 0.000006 -0.000023 46.999310 12.092525 -112.939079 0.000026
[Rope4_Seg02]
33 139.999985 0.000060 0.000119 0.350880 2.934714 3.776246 139.999985
34 139.999985 0.000060 0.000119 0.335701 2.811145 3.928842 139.999985
[Rope4_Seg03]
33 139.999924 0.000000 -0.000238 0.274876 4.282360 5.448151 139.999924
34 139.999924 0.000000 -0.000238 0.224726 4.096413 5.678458 139.999924
[Rope4_Seg04]
33 139.999985 0.000000 0.000119 0.402204 14.331697 13.662414 139.999985
34 139.999985 0.000000 0.000119 -0.156867 11.278473 13.485394 139.999985
[Rope4_Seg05]
33 139.999802 -0.000060 -0.000119 -1.742440 -5.216380 2.844193 139.999802
34 139.999802 -0.000060 -0.000119 -1.472102 -0.223093 4.462096 139.999802
[Rope4_Seg06]
33 139.999924 0.000000 0.000060 2.452665 -22.101645 -11.578181 139.999924
34 139.999924 0.000000 0.000060 1.340022 -9.813589 -7.122242 139.999924
[Rope4_Seg07]
33 139.999802 0.000000 0.000000 0.588478 -9.471521 -3.546314 139.999802
34 139.999802 0.000000 0.000000 0.184489 -3.562522 -1.582557 139.999802
[Rope4_Seg08]
33 139.999924 0.000000 0.000119 -1.197130 -5.412907 -1.981854 139.999924
34 139.999924 0.000000 0.000119 -1.434221 -2.196781 -0.965195 139.999924
[Rope4_Seg09]
33 90.185791 0.000060 0.000060 -135.617828 2.228885 0.850567 90.185791
34 90.185791 0.000060 0.000060 -135.617828 2.228885 0.850567 90.185791
[L_rear_hand01]
33 101.696655 -8.392275 -7.654577 -12.874829 -36.868488 107.832764 102.329041
34 101.696655 -8.392275 -7.654577 -12.874829 -36.868488 107.832764 102.329041
[L_rear_hand02]
33 102.726799 -1.568258 5.773216 71.484581 71.816628 158.486160 102.900848
34 102.726799 -1.568258 5.773216 71.484581 71.816628 158.486160 102.900848
[L_rear_hand03]
33 104.552910 9.721220 -10.420293 -177.714203 -24.565960 -106.089035 105.519653
34 104.552910 9.721220 -10.420293 -177.714203 -24.565960 -106.089035 105.519653
